<svg xmlns="http://www.w3.org/2000/svg" width="400" height="382.857" xmlns:v="https://vecta.io/nano"><path d="M339.902 1.086c-1.994 4.496-.252 26.659 2.781 35.388 3.185 9.169 13.364 21.208 16.297 19.276 3.233-2.13 6.056-14.144 4.892-20.82-2.39-13.704-11.536-28.103-21.521-33.883l-1.935-1.12-.514 1.159m44.728 25.547c-4.752 4.378-14.697 21.754-17.686 30.901-3.057 9.355-3.277 20.266-.538 26.65 2.238 5.216 15.11-4.53 20.338-15.4 5.194-10.799 5.659-31.371.966-42.764-.61-1.481-.863-1.43-3.08.613m-65.623 17.771c-.839 2.642 5.094 16.215 10.254 23.459 9.883 13.876 26.298 22.799 28.296 15.381 3.825-14.206-11.969-32.86-32.297-38.143-6.418-1.668-5.961-1.617-6.253-.697m77.524 30.441c-17.976 12.759-30.68 32.529-31.509 49.033-.385 7.673.9 8.847 7.338 6.707 12.567-4.179 23.272-19.646 25.831-37.32.932-6.439 1.032-16.717.176-18.216l-.612-1.074-1.224.87m-71.908 7.028c-.853 2.223 1.427 13.309 4.289 20.857 4.033 10.636 11.082 19.083 20.725 24.838 5.059 3.018 4.964 3.025 6.429-.425 6.478-15.259-7.439-38.484-27.013-45.077-2.998-1.01-4.098-1.058-4.43-.193m37.656 17.617c-.136 1.066-.706 7.081-1.266 13.367-1.926 21.616-3.511 30.649-8.379 47.755-9.422 33.111-21.107 55.189-44.824 84.694-11.028 13.72-13.707 16.43-30.021 30.37-45.501 38.881-112.255 58.581-174.32 51.445-32.378-3.723-55.942-11.945-92.822-32.387-7.675-4.254-7.313-4.16-8.936-2.312-3.135 3.57-.801 5.774 14.677 13.857 50.555 26.402 102.23 34.4 156.877 24.279 56.311-10.429 107.463-42.178 141.627-87.905 15.281-20.454 19.422-27.468 28.741-48.69 11.096-25.27 18.335-58.143 19.095-86.718.246-9.245.088-11.974-.449-7.755m-39.663 20.162c-1.431 2.315-.411 18.028 1.629 25.082 3.562 12.322 7.322 18.169 16.324 25.39l3.208 2.574.988-.928c6.204-5.829 6.845-18.811 1.457-29.525-5.454-10.846-21.422-26.128-23.606-22.593m72.572 7.893c-23.255 12.176-39.926 31.65-39.189 45.777.153 2.92.619 3.083 7.458 2.614 17.152-1.177 34.155-23.267 36.386-47.272.342-3.676.264-3.695-4.655-1.119m-81.696 28.642c-4.813 6.118-3.992 31.222 1.386 42.359 3.05 6.317 9.028 14.107 10.825 14.107 3.019 0 8.167-9.422 9.038-16.543 1.584-12.946-3.343-24.414-16.17-37.641-3.617-3.729-3.856-3.837-5.079-2.282m69.365 23.365c-20.748 6.829-31.464 13.934-41.928 27.801-3.393 4.497-5.646 11.302-4.14 12.505.767.613 8.693.92 14.208.552 12.731-.851 27.824-14 36.091-31.443 5.395-11.382 4.925-12.428-4.231-9.415m-85.926 10.81c-10.005 15.27-10.425 48.837-.737 58.813 1.914 1.97 2.612 1.83 5.554-1.114 13.259-13.269 14.03-32.908 2.021-51.53-3.966-6.15-5.778-7.785-6.838-6.169m-24.572 32.183c-3.819 3.972-11.211 18.502-13.657 26.843-1.736 5.919-2.622 20.544-1.531 25.275.454 1.969 3.601 9.01 4.028 9.01 1.189 0 7.742-4.784 10.918-7.971 7.609-7.636 9.741-14.141 9.424-28.763l-.19-8.776-1.718-5.102c-1.703-5.057-4.75-11.47-5.568-11.718-.234-.071-1.001.47-1.706 1.202m90.668 6.035c-21.074 1.458-40.898 10.388-51.172 23.053-5.805 7.154-5.871 7.471-1.957 9.347 16.961 8.13 39.627-.707 54.863-21.388 7.045-9.563 7.803-11.018 5.749-11.026-.729-.003-1.694-.072-2.143-.152s-2.852-.006-5.34.166m-123.264 22.379c-13.078 11.009-21.796 28.991-21.798 44.959-.002 10.572 1.213 11.727 8.803 8.37 15.716-6.95 24.102-29.604 18.707-50.533-1.5-5.82-1.891-6.012-5.712-2.796m-36.829 19.132c-11.666 7.329-22.679 20.319-27.417 32.342-1.992 5.052-3.412 17.175-2.159 18.433 1.302 1.307 12.873-1.756 17.095-4.526 10.769-7.064 18.722-23.827 18.693-39.401-.018-9.699-.619-10.361-6.212-6.848m107.678 4.623c-15.047.885-28.86 6.59-39.588 16.35l-2.965 2.698 4.236 2.831c17.732 11.854 42.517 6.323 63.317-14.13 5.03-4.946 5.376-5.791 2.653-6.475-4.34-1.091-19.154-1.773-27.653-1.274m-146.939 5.846c-18.531 7.152-32.689 20.789-37.98 36.582-2.522 7.527-1.996 8.556 4.373 8.566 18.911.031 34.444-15.031 37.878-36.728l1.061-6.245c.816-4.175.347-4.366-5.332-2.175m-40.965 1.114c-20.015 2.922-39.799 15.88-47.386 31.034-2.514 5.022-2.291 5.492 3.249 6.858 18.831 4.644 35.894-5.541 46.403-27.699 5.35-11.281 5.345-11.305-2.266-10.193m124.435 28.142c-7.945.819-20.246 5.588-21.497 8.335-1.416 3.107 4.22 9.187 12.109 13.063 15.38 7.556 44.409 2.71 59.379-9.913 5.872-4.951-31.061-13.436-49.991-11.485M187.78 330.24c-4.39.568-10.902 2.823-11.651 4.035-.754 1.221 4.685 9.807 8.378 13.226 12.78 11.833 32.85 15.183 54.064 9.025 10.814-3.139 11.055-4.059 2.543-9.702-17.843-11.831-39.068-18.431-53.334-16.584m-118.21 4.75c-2.151 22.959 23.321 44.232 56.757 47.4 4.561.432 4.402.838 1.615-4.109-15.495-27.5-32.814-42.631-52.443-45.814-5.999-.973-5.585-1.149-5.929 2.523m55.602 3.803c-4.71 3.706 3.529 18.759 14.216 25.974 10.258 6.925 22.338 10.057 38.979 10.104 13.231.037 14.168-.361 10.677-4.544-11.169-13.384-27.455-25.198-40.906-29.676-7.898-2.628-20.672-3.662-22.966-1.858" fill-rule="evenodd" fill="#fff"/></svg>